<svg width="222" height="204" viewBox="0 0 222 204" fill="none" xmlns="http://www.w3.org/2000/svg">
<path d="M63.0862 96.7219C63.0862 109.945 73.8055 120.664 87.0284 120.664L122.942 120.664C126.615 120.664 129.592 117.686 129.592 114.013L129.592 68.7893C129.592 61.4433 123.637 55.4881 116.291 55.4881L69.7368 55.4881C66.0638 55.4881 63.0862 58.4657 63.0862 62.1387L63.0862 96.7219Z" fill="#FFF1DA"/>
<path d="M127.707 115.267C125.9 115.671 124.141 116.419 122.537 117.466C118.36 120.126 115.931 123.926 117.111 125.952C118.291 127.978 122.634 127.463 126.811 124.803C128.436 123.793 129.88 122.502 131.053 121.01C131.597 120.289 131.694 119.39 131.302 118.718L129.768 116.086C129.378 115.412 128.569 115.091 127.707 115.267Z" fill="#D5D6DB"/>
<path d="M117.217 79.3618C115.907 79.6547 114.631 80.1979 113.468 80.957C110.44 82.8855 108.677 85.6406 109.533 87.1085C110.388 88.5764 113.538 88.2025 116.566 86.2742C117.744 85.5417 118.79 84.6052 119.641 83.5231C120.035 83.0006 120.106 82.3495 119.821 81.8622L118.711 79.9563C118.428 79.4676 117.842 79.2343 117.217 79.3618Z" fill="#D5D6DB"/>
<path d="M100.172 80.8559C99.8808 80.8231 99.5698 80.9007 99.3002 81.0728L92.1876 85.6032C91.5926 85.981 91.3547 86.7091 91.6567 87.2298C91.7257 87.3491 91.8202 87.451 91.9349 87.5296L109.472 99.6291L133.188 84.5225L100.172 80.8559Z" fill="#029BC5"/>
<path d="M175.162 79.1741L110.612 119.802L72.4196 134.987L52.9411 138.849L50.7971 135.204L158.393 68.7863C161.6 66.7984 165.172 65.5793 168.749 65.2526C170.315 65.118 171.862 65.1711 173.354 65.4101C174.676 65.6115 175.93 65.9993 177.079 66.5619C178.362 67.1993 180.802 67.2743 181.593 68.5432C181.596 68.5411 183.462 74.3653 175.162 79.1741Z" fill="#E1E6E9"/>
<path d="M111.461 114.407L83.5442 158.935C83.1955 159.56 83.4028 160.261 84.0066 160.5C84.3772 160.647 84.8307 160.589 85.2116 160.347L92.3191 155.84C93.6862 154.972 94.8966 153.87 95.8755 152.602L150.021 88.9277L111.461 114.407Z" fill="#029BC5"/>
<path d="M40.9933 112.924C40.5274 112.764 39.973 112.847 39.5052 113.144L33.6305 116.884C32.8301 117.393 32.5113 118.372 32.9183 119.072C32.9959 119.205 33.0966 119.322 33.2173 119.419L49.6829 132.617L66.9884 121.814L40.9933 112.924Z" fill="#029BC5"/>
<path d="M55.1965 134.987L46.3384 147.399C46.2086 147.577 46.2392 147.801 46.4067 147.899C46.5276 147.969 46.6926 147.956 46.8266 147.867L52.3172 144.388C52.3599 144.361 52.3985 144.328 52.4304 144.289L65.3742 128.546L55.1965 134.987Z" fill="#029BC5"/>
<path d="M172.297 65.9406C170.761 65.6928 169.168 65.6391 167.555 65.7799C165.985 67.976 164.981 70.4434 164.645 72.9362C164.62 73.4369 165.024 73.7976 165.547 73.7418C165.709 73.7243 165.871 73.6673 166.016 73.5759L176.134 67.1361C174.951 66.5517 173.659 66.1492 172.297 65.9406Z" fill="#029BC5"/>
<path d="M150.245 77.7832L156.85 73.6148L163.006 84.0857L156.401 88.2541L150.245 77.7832Z" fill="#D5D6DB"/>
<path d="M146.087 81.9283C145.291 82.4321 144.973 83.4014 145.378 84.093L146.033 85.2135C146.464 85.8875 147.447 86.0066 148.229 85.4794C148.974 84.9774 149.273 84.0642 148.914 83.3894L148.259 82.2689C147.855 81.5779 146.883 81.4252 146.087 81.9283Z" fill="#3A556A"/>
<path d="M140.149 85.6148C139.353 86.1186 139.035 87.0879 139.44 87.7795L140.095 88.9C140.526 89.574 141.509 89.6932 142.291 89.166C143.036 88.6639 143.335 87.7507 142.976 87.076L142.321 85.9555C141.917 85.2646 140.945 85.112 140.149 85.6148Z" fill="#3A556A"/>
<path d="M134.209 89.3063C133.414 89.8108 133.097 90.7789 133.501 91.4699L134.156 92.5904C134.587 93.2644 135.57 93.3835 136.353 92.8563C137.097 92.3543 137.397 91.4411 137.038 90.7664L136.383 89.6459C135.978 88.9543 135.005 88.8023 134.209 89.3063Z" fill="#3A556A"/>
<path d="M128.271 92.9918C127.476 93.4963 127.159 94.4644 127.563 95.1555L128.218 96.276C128.649 96.95 129.632 97.0691 130.415 96.5419C131.159 96.0399 131.459 95.1267 131.1 94.4519L130.445 93.3314C130.04 92.64 129.067 92.488 128.271 92.9918Z" fill="#3A556A"/>
<path d="M122.333 96.6809C121.538 97.1856 121.221 98.1541 121.625 98.8455L122.28 99.9664C122.684 100.657 123.657 100.809 124.453 100.306C125.248 99.8022 125.566 98.8337 125.162 98.1427L124.506 97.0217C124.103 96.3301 123.131 96.1771 122.335 96.6798C122.334 96.6803 122.334 96.6805 122.333 96.6809Z" fill="#3A556A"/>
<path d="M116.395 100.366C115.6 100.871 115.283 101.84 115.687 102.531L116.343 103.652C116.747 104.343 117.719 104.495 118.515 103.991C119.311 103.488 119.628 102.519 119.224 101.828L118.569 100.707C118.165 100.016 117.193 99.8627 116.397 100.365C116.396 100.366 116.396 100.366 116.395 100.366Z" fill="#3A556A"/>
<path d="M110.457 104.057C109.661 104.562 109.344 105.53 109.748 106.221L110.404 107.342C110.809 108.033 111.782 108.183 112.577 107.679C113.37 107.175 113.687 106.209 113.285 105.519L112.629 104.398C112.225 103.706 111.253 103.554 110.457 104.057Z" fill="#3A556A"/>
<path d="M104.518 107.743C103.723 108.248 103.406 109.217 103.81 109.908L104.465 111.029C104.871 111.719 105.844 111.87 106.638 111.365C107.432 110.862 107.749 109.896 107.346 109.205L106.691 108.084C106.287 107.393 105.315 107.24 104.518 107.743Z" fill="#3A556A"/>
<path d="M98.5802 111.431C97.7847 111.936 97.4678 112.904 97.872 113.595L98.5275 114.716C98.9325 115.407 99.9056 115.557 100.7 115.053C101.494 114.549 101.811 113.583 101.408 112.893L100.753 111.772C100.349 111.081 99.3762 110.928 98.5802 111.431Z" fill="#3A556A"/>
<path d="M92.6402 115.121C91.8445 115.625 91.527 116.593 91.9311 117.284L91.9319 117.286L92.5874 118.407C92.9925 119.097 93.9655 119.248 94.7604 118.743C95.5538 118.24 95.8706 117.274 95.4684 116.583L94.813 115.462C94.4091 114.771 93.4365 114.618 92.6402 115.121Z" fill="#3A556A"/>
<path d="M86.7035 118.807C85.9078 119.311 85.5904 120.279 85.9945 120.97L85.9953 120.971L86.6508 122.092C87.0559 122.783 88.0289 122.933 88.8238 122.429C89.6173 121.925 89.9341 120.959 89.5319 120.269L88.8764 119.148C88.4721 118.457 87.4996 118.304 86.7035 118.807Z" fill="#3A556A"/>
</svg>
