<svg width="123" height="104" viewBox="0 0 123 104" fill="none" xmlns="http://www.w3.org/2000/svg">
<path d="M122.371 79.8097C122.371 93.0327 111.652 103.752 98.429 103.752L62.5157 103.752C58.8427 103.752 55.8651 100.774 55.8651 97.1013L55.8651 51.8772C55.8651 44.5312 61.8203 38.576 69.1663 38.576L115.721 38.576C119.394 38.576 122.371 41.5536 122.371 45.2266L122.371 79.8097Z" fill="#FFF1DA"/>
<path d="M31.2939 67.3819L28.7825 66.1797L13.863 88.2393H30.5133L32.1178 87.1931V68.137L31.2939 67.3819Z" fill="#407093"/>
<path d="M29.0094 66.2872L23.3629 63.584H22.2987L6.33228 87.1918L7.28282 88.238H14.1636L29.0094 66.2872Z" fill="#365E7D"/>
<path d="M35.1153 87.1924H13.0985C12.0983 87.1924 11.2874 88.0031 11.2874 89.0035V91.2984C11.2874 92.2984 12.0981 93.1091 13.0981 93.1093H35.1153C36.1155 93.1093 36.9264 92.2986 36.9264 91.2984V89.0035C36.9264 88.0031 36.1155 87.1924 35.1153 87.1924Z" fill="#4A80AA"/>
<path d="M11.6622 91.2984V89.0034C11.6622 88.0033 12.4731 87.1924 13.4732 87.1924H1.81106C0.810878 87.1924 0 88.0031 0 89.0034V91.2984C0 92.2986 0.810878 93.1093 1.81106 93.1093H13.4731C12.4729 93.1093 11.6622 92.2986 11.6622 91.2984Z" fill="#407093"/>
<path d="M28.2516 53.1807C27.5738 54.5787 27.1909 56.1463 27.1909 57.8046C27.1909 62.3362 30.0285 66.2018 34.0223 67.731C35.737 67.1938 37.2605 66.2247 38.464 64.9489V62.6333L28.2516 53.1807Z" fill="#4A80AA"/>
<path d="M27.3695 57.8426C27.3695 56.2227 27.7441 54.6915 28.4074 53.3263L25.1429 50.3047H23.8183C21.8152 52.1943 20.563 54.8714 20.563 57.8425C20.563 63.5661 25.2028 68.2058 30.9264 68.2058C32.1186 68.2058 33.2619 68.0013 34.3276 67.6305C30.2773 66.2215 27.3695 62.3728 27.3695 57.8426Z" fill="#407093"/>
<path d="M87.5381 1.22996C85.8981 -0.409985 83.2393 -0.409985 81.5995 1.22996L77.592 5.23743V5.74534L82.5939 10.9596L83.5306 11.176L87.5379 7.16852C89.178 5.52876 89.178 2.8699 87.5381 1.22996Z" fill="#FFD086"/>
<path d="M88.6459 3.21214C88.471 2.48619 88.1047 1.79679 87.5381 1.22996C85.8981 -0.409985 83.2393 -0.409985 81.5995 1.22996L77.592 5.23743V5.74534L80.244 8.50986C81.825 6.86464 83.3948 5.24107 84.202 4.43383C85.5477 3.0883 87.5132 3.07794 88.6459 3.21214Z" fill="#FFC365"/>
<path d="M73.8183 11.9058C73.7723 11.9058 73.7257 11.9034 73.679 11.8989L27.3689 7.34058C26.5966 7.26457 26.0323 6.57699 26.1083 5.80466C26.1843 5.03234 26.8723 4.46841 27.6442 4.54388L73.9543 9.102C74.7264 9.17802 75.2909 9.8656 75.2149 10.6379C75.1434 11.3637 74.5322 11.9058 73.8183 11.9058Z" fill="#365E7D"/>
<path d="M40.7627 20.5735C40.1395 20.5735 39.5702 20.1556 39.4047 19.5246C39.2077 18.7739 39.6567 18.0057 40.4072 17.8088L73.4608 9.13899C74.2113 8.94241 74.9797 9.39103 75.1764 10.1417C75.3734 10.8922 74.9246 11.6604 74.1739 11.8573L41.1203 20.5271C41.0006 20.5584 40.8806 20.5735 40.7627 20.5735Z" fill="#407093"/>
<path d="M82.7954 62.6973C82.0809 62.6973 81.4697 62.1546 81.3986 61.4287L76.8687 15.0902C76.7932 14.3181 77.3581 13.6307 78.1304 13.555C78.9027 13.483 79.5899 14.0446 79.6654 14.8169L84.1953 61.1554C84.2708 61.9275 83.706 62.6149 82.9336 62.6906C82.8873 62.6949 82.8411 62.6973 82.7954 62.6973Z" fill="#365E7D"/>
<path d="M69.466 49.5439C69.3469 49.5439 69.2258 49.5284 69.105 49.4966C68.3549 49.2976 67.9081 48.5284 68.107 47.7783L76.9045 14.597C77.1032 13.8467 77.8723 13.4006 78.6226 13.5988C79.3727 13.7978 79.8195 14.567 79.6206 15.3171L70.8231 48.4984C70.6564 49.128 70.0877 49.5439 69.466 49.5439Z" fill="#407093"/>
<path d="M73.5649 9.2627L77.5825 5.24501L83.5202 11.1828L79.5026 15.2004L73.5649 9.2627Z" fill="#FFC365"/>
<path d="M76.6162 12.2979C77.5819 11.2868 79.0898 9.70977 80.5482 8.19349L77.5922 5.2373L73.5739 9.25551L76.6162 12.2979Z" fill="#FFA90F"/>
<path d="M80.407 17.4944C80.0475 17.4944 79.6878 17.3571 79.4135 17.0829L71.6861 9.35566C71.1373 8.80683 71.1373 7.91739 71.6861 7.36838C72.2347 6.81991 73.1244 6.81991 73.6732 7.36838L81.4006 15.0956C81.9495 15.6445 81.9495 16.5339 81.4006 17.0829C81.1262 17.3573 80.7667 17.4944 80.407 17.4944Z" fill="#4A80AA"/>
<path d="M81.3139 65.2261L34.2664 17.7705C28.0288 31.852 26.9457 46.9685 31.6153 60.0038C44.5116 71.6369 63.7761 73.4232 81.511 66.1106L81.3139 65.2261Z" fill="#B5DCFF"/>
<path d="M34.5171 18.0231L23.7378 7.15039L22.6576 7.25696C15.0631 25.6755 17.2806 45.7452 30.1517 58.6163C30.9313 59.3959 31.738 60.1357 32.5685 60.8375C27.1428 47.8176 28.0246 32.3322 34.5171 18.0231Z" fill="#8BCAFF"/>
<path d="M85.6134 61.8529L37.8973 14.1367C37.4277 14.2091 36.9756 14.4226 36.6141 14.7841L34.5386 16.8598C34.0929 17.3055 33.8712 17.8876 33.8649 18.4719L81.4297 66.0366C82.1369 66.7438 83.2835 66.7438 83.9907 66.0366L85.6136 64.4139C86.3206 63.7069 86.3206 62.5601 85.6134 61.8529Z" fill="#DBEDFF"/>
<path d="M34.6102 16.8948L36.6424 14.8626C37.0167 14.4884 37.4893 14.2741 37.977 14.2161L26.9153 3.15444C26.2081 2.44722 25.0615 2.44722 24.3541 3.15444L22.7313 4.77729C22.0241 5.48451 22.0241 6.63109 22.7313 7.33831L33.9485 18.5555C33.9337 17.9561 34.1529 17.3522 34.6102 16.8948Z" fill="#B5DCFF"/>
</svg>
