<svg width="103" height="88" viewBox="0 0 103 88" fill="none" xmlns="http://www.w3.org/2000/svg">
<path d="M35.9128 63.8439C35.9128 77.0668 46.6321 87.7861 59.855 87.7861L95.7683 87.7861C99.4414 87.7861 102.419 84.8085 102.419 81.1355L102.419 35.9114C102.419 28.5653 96.4638 22.6102 89.1177 22.6102L42.5634 22.6102C38.8904 22.6102 35.9128 25.5878 35.9128 29.2608L35.9128 63.8439Z" fill="#FFF1DA"/>
<path d="M66.5058 37.0415V29.4646C66.5058 27.9793 65.3018 26.7752 63.8164 26.7752H60.9185C59.7598 26.7752 58.7317 26.0328 58.3675 24.9328C57.9617 23.7075 57.4688 22.5219 56.896 21.3834C56.3744 20.3464 56.5741 19.0929 57.3947 18.272L59.4451 16.2217C60.4954 15.1714 60.4954 13.4686 59.4451 12.4183L54.0874 7.06062C53.0371 6.0103 51.3343 6.0103 50.284 7.06062L48.2336 9.11093C47.4128 9.93175 46.1592 10.1313 45.1223 9.60966C43.9838 9.03693 42.7982 8.54396 41.5729 8.13823C40.4729 7.77398 39.7305 6.74588 39.7305 5.58718V2.68941C39.7305 1.20407 38.5264 0 37.0411 0H29.4642C27.9789 0 26.7748 1.20407 26.7748 2.68941V5.58731C26.7748 6.74602 26.0324 7.77412 24.9324 8.13836C23.7071 8.54409 22.5215 9.03706 21.383 9.60979C20.346 10.1314 19.0925 9.93175 18.2716 9.11106L16.2213 7.06075C15.171 6.01044 13.4682 6.01044 12.4179 7.06075L7.06048 12.4184C6.01017 13.4688 6.01017 15.1715 7.06048 16.2219L9.1108 18.2722C9.93148 19.093 10.1311 20.3466 9.60953 21.3835C9.0368 22.522 8.54382 23.7076 8.13809 24.933C7.88063 25.7103 7.29171 26.309 6.55948 26.5933C6.25558 26.7114 6.06075 26.909 5.72086 26.909H2.82296C1.33761 26.909 0.133545 28.1131 0.133545 29.5984V36.9077C0.133545 38.393 1.33761 39.5971 2.82296 39.5971H5.72086C6.87956 39.5971 7.90767 40.4733 8.27191 41.5733C8.67764 42.7986 9.17061 43.9841 9.74334 45.1227C10.265 46.1596 10.0653 47.4132 9.24461 48.234L7.32811 50.2843C6.2778 51.3347 6.2778 53.0375 7.32811 54.0878L12.4182 59.1778C13.4685 60.2281 15.1713 60.2281 16.2216 59.1778L18.2719 57.1275C19.0926 56.3067 20.3463 56.1072 21.3832 56.6288C22.5217 57.2015 23.975 57.8283 25.2003 58.234C26.3003 58.5983 27.0427 59.6264 27.0427 60.7851V63.683C27.0427 65.1683 28.2468 66.3724 29.7321 66.3724H36.9075C38.3929 66.3724 39.5969 65.1683 39.5969 63.683V60.7851C39.5969 60.4452 39.7946 60.2504 39.9126 59.9465C40.197 59.2142 40.7958 58.6253 41.573 58.3678C42.7983 57.9621 43.9839 57.4691 45.1224 56.8964C46.1594 56.3748 47.4129 56.5745 48.2338 57.3951L50.2841 59.4455C51.3344 60.4958 53.0372 60.4958 54.0875 59.4455L59.4452 54.0878C60.4955 53.0375 60.4955 51.3347 59.4452 50.2843L57.3949 48.234C56.5742 47.4132 56.3745 46.1596 56.8962 45.1227C57.4689 43.9842 57.9619 42.7986 58.3676 41.5733C58.7318 40.4733 59.7599 39.7309 60.9186 39.7309H63.8165C65.3018 39.7309 66.5058 38.5268 66.5058 37.0415Z" fill="#B6C4CF"/>
<path d="M39.913 59.9472C39.7953 60.2509 39.731 60.5801 39.731 60.92V63.8171C39.731 65.3024 38.5267 66.5068 37.0413 66.5068H29.4647C27.9794 66.5068 26.7751 65.3024 26.7751 63.8171V60.92C26.7751 59.7612 26.0324 58.7321 24.9324 58.3681C23.708 57.9627 22.5224 57.4702 21.3836 56.8975C20.3466 56.3756 19.0927 56.575 18.2724 57.3953L16.2224 59.4454C15.172 60.4958 13.4685 60.4958 12.418 59.4454L7.06008 54.0887C6.01097 53.0383 6.01097 51.3348 7.06008 50.2844L9.11147 48.2343C9.93175 47.414 10.1311 46.1602 9.60926 45.1231C9.03653 43.9844 8.54409 42.7988 8.13863 41.5743C7.77465 40.4744 6.74562 39.7317 5.58678 39.7317H2.68968C1.20434 39.7317 0 38.5274 0 37.042V29.4654C0 27.9801 1.20434 26.7757 2.68968 26.7757H5.58678C5.92667 26.7757 6.25585 26.7115 6.55961 26.5938C6.55694 26.761 6.5556 26.9296 6.5556 27.0982C6.5556 45.2422 21.2645 59.9512 39.4085 59.9512C39.5771 59.9512 39.7457 59.9498 39.913 59.9472Z" fill="#9FACBA"/>
<path d="M33.2528 55.3318C45.447 55.3318 55.3323 45.4465 55.3323 33.2523C55.3323 21.0582 45.447 11.1729 33.2528 11.1729C21.0587 11.1729 11.1733 21.0582 11.1733 33.2523C11.1733 45.4465 21.0587 55.3318 33.2528 55.3318Z" fill="#9FACBA"/>
<path d="M33.2529 50.6503C42.8604 50.6503 50.6488 42.8619 50.6488 33.2544C50.6488 23.6468 42.8604 15.8584 33.2529 15.8584C23.6454 15.8584 15.8569 23.6468 15.8569 33.2544C15.8569 42.8619 23.6454 50.6503 33.2529 50.6503Z" fill="#F8F7F7"/>
</svg>
